HIERARCHY
ROOT joint_Root
{
	OFFSET 0.0 0.0 0.0
	CHANNELS 6 Xposition Yposition Zposition Zrotation Xrotation Yrotation 
	JOINT Hips
	{
		OFFSET 4.5925 91.4895 -427.239
		CHANNELS 6 Xposition Yposition Zposition Zrotation Xrotation Yrotation 
		JOINT Spine
		{
			OFFSET 15.7357 0.0 0.0
			CHANNELS 6 Xposition Yposition Zposition Zrotation Xrotation Yrotation 
			JOINT Chest
			{
				OFFSET 8.98455 -0.406207 0.0
				CHANNELS 6 Xposition Yposition Zposition Zrotation Xrotation Yrotation 
				JOINT Neck
				{
					OFFSET 16.3773 0.0 0.0
					CHANNELS 6 Xposition Yposition Zposition Zrotation Xrotation Yrotation 
					JOINT Head
					{
						OFFSET 6.45672 0.0 0.0
						CHANNELS 6 Xposition Yposition Zposition Zrotation Xrotation Yrotation 
						End Site
						{
							OFFSET 0.0 0.0 0.0
						}
					}
				}
				JOINT Shoulder_L
				{
					OFFSET 12.9942 -0.242716 4.98039
					CHANNELS 6 Xposition Yposition Zposition Zrotation Xrotation Yrotation 
					JOINT UpperArm_L
					{
						OFFSET 5.34809 0.0 0.0
						CHANNELS 6 Xposition Yposition Zposition Zrotation Xrotation Yrotation 
						JOINT LowerArm_L
						{
							OFFSET 24.3286 1.87007e-05 0.0
							CHANNELS 6 Xposition Yposition Zposition Zrotation Xrotation Yrotation 
							JOINT Hand_L
							{
								OFFSET 22.2916 0.0 0.0
								CHANNELS 6 Xposition Yposition Zposition Zrotation Xrotation Yrotation 
								End Site
								{
									OFFSET 0.0 0.0 0.0
								}
							}
						}
					}
				}
				JOINT Shoulder_R
				{
					OFFSET 12.9945 -0.242716 -4.98039
					CHANNELS 6 Xposition Yposition Zposition Zrotation Xrotation Yrotation 
					JOINT UpperArm_R
					{
						OFFSET -5.34813 0.0 0.0
						CHANNELS 6 Xposition Yposition Zposition Zrotation Xrotation Yrotation 
						JOINT LowerArm_R
						{
							OFFSET -24.3289 0.000322201 0.0
							CHANNELS 6 Xposition Yposition Zposition Zrotation Xrotation Yrotation 
							JOINT Hand_R
							{
								OFFSET -22.2915 -0.000108084 0.0
								CHANNELS 6 Xposition Yposition Zposition Zrotation Xrotation Yrotation 
								End Site
								{
									OFFSET 0.0 0.0 0.0
								}
							}
						}
					}
				}
			}
		}
		JOINT UpperLeg_L
		{
			OFFSET -2.19248 -6.46944 0.0
			CHANNELS 6 Xposition Yposition Zposition Zrotation Xrotation Yrotation 
			JOINT LowerLeg_L
			{
				OFFSET 39.0811 0.0 -1.23785e-05
				CHANNELS 6 Xposition Yposition Zposition Zrotation Xrotation Yrotation 
				JOINT Foot_L
				{
					OFFSET 40.9854 0.0 -1.26872e-05
					CHANNELS 6 Xposition Yposition Zposition Zrotation Xrotation Yrotation 
					JOINT Toes_L
					{
						OFFSET 11.7543 0.0 0.0
						CHANNELS 6 Xposition Yposition Zposition Zrotation Xrotation Yrotation 
						End Site
						{
							OFFSET 0.0 0.0 0.0
						}
					}
				}
			}
		}
		JOINT UpperLeg_R
		{
			OFFSET -2.19251 6.46944 0.0
			CHANNELS 6 Xposition Yposition Zposition Zrotation Xrotation Yrotation 
			JOINT LowerLeg_R
			{
				OFFSET -39.0811 -0.00228153 -0.0401928
				CHANNELS 6 Xposition Yposition Zposition Zrotation Xrotation Yrotation 
				JOINT Foot_R
				{
					OFFSET -40.9854 0.0 0.0
					CHANNELS 6 Xposition Yposition Zposition Zrotation Xrotation Yrotation 
					JOINT Toes_R
					{
						OFFSET -11.7543 0.0 0.0
						CHANNELS 6 Xposition Yposition Zposition Zrotation Xrotation Yrotation 
						End Site
						{
							OFFSET 0.0 0.0 0.0
						}
					}
				}
			}
		}
	}
}
MOTION
Frames:	4
Frame Time:	0.0333333
0.000000 0.000000 0.000000 0.000000 0.000000 -0.000000 123.800000 88.975200 147.112000 91.033900 -44.987700 1.176710 15.735700 0.000005 -0.000001 75.783000 82.134400 -75.391300 8.984550 -0.406207 -0.000000 7.509450 -3.849520 1.035590 16.377300 -0.000001 -0.000001 3.793420 -13.204900 1.877620 6.456720 -0.000001 -0.000000 2.372060 -16.311300 4.386560 12.994200 -0.242716 4.980390 -91.124500 3.398630 -71.679800 5.348090 -0.000007 -0.000001 -60.056000 27.072000 -14.515800 24.328600 0.000019 0.000005 8.113940 10.513500 -38.004800 22.291600 -0.000001 0.000005 16.920400 5.261940 1.116760 12.994500 -0.242716 -4.980390 87.850100 9.531770 -77.226500 -5.348130 -0.000001 -0.000004 -66.096200 28.504800 -5.181980 -24.328900 0.000322 -0.000009 0.715389 2.104850 -18.806600 -22.291500 -0.000108 -0.000004 13.884800 5.356600 -1.575700 -2.192480 -6.469440 -0.000000 -174.670000 -19.027300 -1.921080 39.081100 -0.000007 -0.000012 0.016905 -0.019329 41.169200 40.985400 -0.000006 -0.000013 -4.478210 -2.506610 -68.960200 11.754300 -0.000000 0.000003 -0.044888 -0.279049 -28.054700 -2.192510 6.469440 -0.000001 -171.416000 18.764300 154.796000 -39.081100 -0.002282 -0.040193 -0.125518 0.172394 36.765500 -40.985400 0.000008 0.000006 12.023300 -2.931270 -64.263100 -11.754300 -0.000006 -0.000006 -0.004730 -0.058825 -18.966400
0.000000 0.000000 0.000000 0.000000 0.000000 -0.000000 121.968000 89.065200 149.139000 91.793000 -45.701100 2.527650 15.735700 0.000005 -0.000001 77.208000 82.093800 -76.707900 8.984550 -0.406207 -0.000000 7.680160 -3.487490 1.233420 16.377300 -0.000001 -0.000001 4.166940 -13.629900 2.443990 6.456720 -0.000001 -0.000000 2.598350 -16.813300 5.072970 12.994200 -0.242716 4.980390 -91.016500 3.065690 -71.646400 5.348090 -0.000007 -0.000001 -63.195800 28.818100 -12.608000 24.328600 0.000019 0.000005 8.756430 12.607500 -35.211500 22.291600 -0.000001 0.000005 15.573400 5.240330 1.688920 12.994500 -0.242716 -4.980390 87.844600 9.413710 -77.041400 -5.348130 -0.000001 -0.000004 -65.874100 27.624900 -5.575160 -24.328900 0.000322 -0.000009 0.999383 3.084560 -17.979800 -22.291500 -0.000108 -0.000004 13.874500 5.349420 -1.360190 -2.192480 -6.469440 -0.000000 -175.077000 -17.239000 -4.880340 39.081100 -0.000007 -0.000012 0.074590 -0.064976 48.939200 40.985400 -0.000006 -0.000013 -4.247460 -4.081750 -62.037300 11.754300 -0.000000 0.000003 -0.068516 -0.358521 -31.416400 -2.192510 6.469440 -0.000001 -173.069000 18.890500 157.324000 -39.081100 -0.002282 -0.040193 -0.202733 0.265290 37.832200 -40.985400 0.000008 0.000006 10.688900 -2.429910 -66.765400 -11.754300 -0.000006 -0.000006 -0.003468 -0.045784 -18.435200
0.000000 0.000000 0.000000 0.000000 0.000000 -0.000000 120.239000 89.212300 150.994000 92.443500 -46.894700 4.146850 15.735700 0.000005 -0.000001 79.847900 81.852500 -79.290300 8.984550 -0.406207 -0.000000 8.295740 -2.856530 1.321550 16.377300 -0.000001 -0.000001 4.151260 -14.166100 3.219610 6.456720 -0.000001 -0.000000 2.454470 -17.578600 5.718320 12.994200 -0.242716 4.980390 -91.106700 3.337390 -71.642800 5.348090 -0.000007 -0.000001 -65.277600 30.449600 -10.718300 24.328600 0.000019 0.000005 9.310770 14.620300 -33.006100 22.291600 -0.000001 0.000005 13.289100 5.229100 1.980200 12.994500 -0.242716 -4.980390 87.884600 9.292690 -77.115500 -5.348130 -0.000001 -0.000004 -65.553000 26.597900 -6.178270 -24.328900 0.000322 -0.000009 0.956299 2.915900 -18.186000 -22.291500 -0.000108 -0.000004 14.117500 5.342510 -1.153800 -2.192480 -6.469440 -0.000000 -175.960000 -14.523200 -8.799660 39.081100 -0.000007 -0.000012 0.112214 -0.071825 57.376300 40.985400 -0.000006 -0.000013 -1.847800 -6.380110 -54.676700 11.754300 -0.000000 0.000003 -0.017652 -0.153928 -22.861700 -2.192510 6.469440 -0.000001 -174.656000 18.712800 160.478000 -39.081100 -0.002282 -0.040193 -0.237686 0.307235 38.108000 -40.985400 0.000008 0.000006 9.953980 -1.632730 -68.765000 -11.754300 -0.000006 -0.000006 -0.002948 -0.040010 -18.200200
0.000000 0.000000 0.000000 0.000000 0.000000 -0.000000 118.649000 89.382400 152.669000 92.614600 -48.754100 5.013310 15.735700 0.000005 -0.000001 83.350000 81.611200 -82.709000 8.984550 -0.406207 -0.000000 8.913600 -1.926500 1.431170 16.377300 -0.000001 -0.000001 3.861870 -14.525300 3.858530 6.456720 -0.000001 -0.000000 2.244370 -18.336500 6.562890 12.994200 -0.242716 4.980390 -91.216100 3.658030 -71.596400 5.348090 -0.000007 -0.000001 -66.945200 31.854800 -8.971390 24.328600 0.000019 0.000005 9.587030 16.236400 -31.136200 22.291600 -0.000001 0.000005 11.426300 5.233180 1.872330 12.994500 -0.242716 -4.980390 87.973800 9.171760 -77.485900 -5.348130 -0.000001 -0.000004 -64.785700 26.406300 -7.443770 -24.328900 0.000322 -0.000009 0.570321 1.661330 -18.986200 -22.291500 -0.000108 -0.000004 14.261500 5.352950 -1.466160 -2.192480 -6.469440 -0.000000 -176.503000 -12.666100 -12.022000 39.081100 -0.000007 -0.000012 0.104495 -0.052945 63.127500 40.985400 -0.000006 -0.000013 -0.276703 -6.080390 -53.073300 11.754300 -0.000000 0.000003 -0.004289 -0.054424 -18.790800 -2.192510 6.469440 -0.000001 -175.598000 17.720600 163.318000 -39.081100 -0.002282 -0.040193 -0.235193 0.308286 37.724300 -40.985400 0.000008 0.000006 9.710780 -0.846819 -70.218600 -11.754300 -0.000006 -0.000006 -0.002386 -0.033443 -17.933000
